<svg xmlns="http://www.w3.org/2000/svg" width="682.667" height="682.667" preserveAspectRatio="xMidYMid meet" version="1.0" viewBox="0 0 512 512"><metadata>Created by potrace 1.14, written by Peter Selinger 2001-2017</metadata><g fill="#000" stroke="none"><path d="M1437 5114 c-1 -1 -31 -4 -67 -7 -65 -6 -104 -12 -150 -23 -14 -3 -33 -8 -42 -10 -42 -10 -56 -14 -118 -34 -81 -27 -241 -103 -298 -141 -24 -16 -47 -29 -52 -29 -4 0 -10 -3 -12 -7 -2 -5 -28 -27 -59 -50 -111 -82 -249 -227 -344 -360 -65 -90 -160 -278 -200 -393 -1 -3 -4 -12 -7 -20 -26 -68 -63 -233 -76 -330 -12 -91 -7 -379 7 -465 14 -87 48 -228 61 -260 5 -11 12 -31 16 -44 3 -13 13 -39 20 -58 8 -18 15 -36 16 -40 0 -5 24 -53 53 -108 82 -156 90 -170 95 -175 3 -3 13 -21 22 -40 10 -19 32 -62 51 -95 46 -83 87 -156 137 -250 24 -44 52 -96 63 -115 51 -90 67 -120 99 -180 19 -36 44 -81 55 -100 11 -19 41 -75 68 -125 26 -49 65 -120 86 -157 22 -36 43 -77 49 -90 6 -12 21 -41 33 -63 13 -22 48 -85 77 -140 29 -55 66 -121 82 -148 15 -26 28 -50 28 -53 0 -2 11 -22 25 -44 14 -22 25 -44 25 -50 0 -6 5 -16 10 -23 6 -7 34 -52 62 -102 28 -49 70 -116 94 -148 24 -31 44 -59 44 -62 0 -2 10 -15 23 -28 12 -13 43 -46 68 -73 236 -253 559 -416 901 -457 335 -40 665 35 953 217 44 27 82 53 85 56 3 3 23 18 45 35 87 65 244 225 283 287 9 16 20 28 24 28 4 0 8 5 8 10 0 9 35 65 50 80 3 3 10 14 16 25 6 11 22 40 36 65 13 25 49 90 78 145 30 55 58 102 62 103 4 2 8 10 8 18 0 7 13 36 30 62 16 27 30 54 30 61 0 6 4 11 8 11 4 0 13 12 19 28 6 15 29 59 51 97 21 39 58 106 82 150 23 44 58 106 76 138 19 32 34 60 34 62 0 2 17 34 38 72 22 37 57 102 79 143 23 41 54 100 71 130 16 30 80 147 142 260 278 506 305 562 354 735 43 153 58 260 62 440 4 278 -41 497 -154 740 -44 94 -150 272 -183 305 -8 8 -22 25 -31 38 -52 75 -210 221 -326 299 -85 59 -100 67 -213 123 -112 56 -297 109 -444 126 -47 6 -2311 13 -2318 8z m593 -690 c69 -14 132 -27 140 -29 8 -2 42 -10 75 -20 96 -26 129 -35 146 -39 20 -5 167 -56 199 -69 14 -5 30 -11 35 -12 62 -14 388 -183 498 -257 41 -28 143 -102 154 -112 6 -6 24 -21 40 -33 62 -48 212 -200 286 -292 19 -23 74 -101 121 -171 l30 -44 -32 -121 c-41 -154 -37 -140 -62 -215 -77 -232 -212 -519 -321 -682 -21 -33 -39 -64 -39 -69 0 -5 -4 -9 -8 -9 -4 0 -16 -13 -25 -30 -10 -16 -23 -35 -30 -42 -7 -7 -32 -38 -57 -68 -59 -73 -188 -200 -202 -200 -6 0 -8 -3 -5 -6 4 -4 -33 -34 -81 -67 -48 -34 -90 -66 -94 -71 -4 -6 -8 -7 -8 -3 0 5 -13 -1 -28 -11 -24 -18 -138 -75 -152 -77 -3 0 -9 -3 -15 -6 -11 -7 -139 -48 -170 -56 -11 -2 -29 -6 -40 -8 -11 -2 -30 -6 -42 -9 -38 -8 -156 -19 -228 -20 -67 -2 -72 0 -110 34 -70 62 -259 253 -315 319 -30 35 -60 69 -65 75 -6 6 -22 27 -35 46 -13 19 -30 41 -37 48 -21 22 -123 180 -123 191 0 6 -3 11 -7 11 -5 0 -13 10 -19 23 -6 12 -26 50 -43 85 -35 68 -101 222 -101 234 0 3 -5 19 -12 35 -14 36 -10 20 -54 218 -23 106 -22 364 2 478 3 12 9 44 14 71 28 140 132 385 225 531 65 100 153 221 198 267 9 10 15 18 13 18 -2 0 36 42 85 93 49 50 89 95 89 100 0 10 59 2 210 -29z" transform="translate(0.000000,512.000000) scale(0.100000,-0.100000)"/></g></svg>